# xmcd
#
# Track frame offsets:
#	150
#	11827
#	24572
#	34515
#	47607
#	59555
#	69722
#	81167
#	94207
#	106397
#	121607
#	136322
#	150060
#	157200
#	175900
#
# Disc length: 2505 seconds
#
# Revision: 1
# Processed by: cddbd v1.5.2PL0 Copyright (c) Steve Scherf et al.
# Submitted via: dBpowerAMP V4.0
#
DISCID=bd09c70f
DTITLE=Julie London - Sophisticated Lady One
DYEAR=1998
DGENRE=blues
TTITLE0=Sophisticated Lady
TTITLE1=Cry Me A River
TTITLE2=Boy On A Dolphin
TTITLE3=Around Midnight
TTITLE4=Love For Sale
TTITLE5=You'd Be So Nice To Come Home To
TTITLE6=Blue Moon
TTITLE7=Days Of Wine And Roses
TTITLE8=My Heart Belongs To Daddy
TTITLE9=When I Fall In Love
TTITLE10=Two Sleepy People
TTITLE11=The More I See You
TTITLE12='S Wonderful
TTITLE13=One For My Baby
TTITLE14=Moments Like This
EXTD=3 box cd
EXTT0=
EXTT1=
EXTT2=
EXTT3=
EXTT4=
EXTT5=
EXTT6=
EXTT7=
EXTT8=
EXTT9=
EXTT10=
EXTT11=
EXTT12=
EXTT13=
EXTT14=
PLAYORDER=
